<svg width="173" height="177" viewBox="0 0 173 177" fill="none" xmlns="http://www.w3.org/2000/svg">
<path d="M7 7H21.2243C30.0532 7 37.0017 14.6026 36.266 23.3497L29.4809 104.771C28.3364 118.096 38.8819 129.541 52.2886 129.541H139.351C151.123 129.541 161.423 119.895 162.322 108.205L166.737 46.8933C167.718 33.323 157.417 22.287 143.765 22.287H38.228" stroke="#292D32" stroke-width="12.2623" stroke-miterlimit="10" stroke-linecap="round" stroke-linejoin="round"/>
<path d="M123.492 170.497C129.136 170.497 133.71 165.922 133.71 160.279C133.71 154.635 129.136 150.06 123.492 150.06C117.848 150.06 113.273 154.635 113.273 160.279C113.273 165.922 117.848 170.497 123.492 170.497Z" stroke="#292D32" stroke-width="12.2623" stroke-miterlimit="10" stroke-linecap="round" stroke-linejoin="round"/>
<path d="M58.0928 170.497C63.7364 170.497 68.3114 165.922 68.3114 160.279C68.3114 154.635 63.7364 150.06 58.0928 150.06C52.4492 150.06 47.8743 154.635 47.8743 160.279C47.8743 165.922 52.4492 170.497 58.0928 170.497Z" stroke="#292D32" stroke-width="12.2623" stroke-miterlimit="10" stroke-linecap="round" stroke-linejoin="round"/>
<path d="M64.224 56.0491H162.322" stroke="#292D32" stroke-width="12.2623" stroke-miterlimit="10" stroke-linecap="round" stroke-linejoin="round"/>
</svg>
