<svg width="81" height="73" viewBox="0 0 81 73" fill="none" xmlns="http://www.w3.org/2000/svg">
<path d="M40.3947 52.6325C38.8952 52.6325 37.3956 52.5306 35.9711 52.2929C28.0237 51.2402 20.7885 47.0976 16.215 40.9515C13.0285 36.605 11.3416 31.5455 11.3416 26.3162C11.3416 11.8168 24.3873 0 40.3947 0C56.402 0 69.4478 11.8168 69.4478 26.3162C69.4478 31.5455 67.7608 36.605 64.5744 40.9515C59.9633 47.1315 52.7282 51.2402 44.7058 52.3269C43.3937 52.5306 41.8942 52.6325 40.3947 52.6325ZM40.3947 5.09346C27.4613 5.09346 16.9647 14.6013 16.9647 26.3162C16.9647 30.5608 18.3143 34.6356 20.8635 38.0991C24.5748 43.0567 30.3854 46.3845 36.8333 47.2334C39.2325 47.6069 41.5943 47.6069 43.8061 47.2334C50.3664 46.3845 56.1771 43.0228 59.8884 38.0652C62.4375 34.6016 63.7871 30.5268 63.7871 26.2822C63.8246 14.6012 53.328 5.09346 40.3947 5.09346Z" fill="#000000"/>
<path d="M19.6614 72.463C19.1365 72.463 18.6492 72.3951 18.1243 72.2932C15.6876 71.7839 13.8132 70.0861 13.2509 67.8789L11.9388 62.8873C11.8639 62.5817 11.6015 62.344 11.2266 62.2421L5.04107 60.9178C2.71682 60.4085 0.879916 58.8465 0.242621 56.7752C-0.394673 54.7038 0.242622 52.4627 1.92958 50.9347L16.5499 37.6916C17.1497 37.1483 17.9744 36.8767 18.7991 36.9446C19.6239 37.0125 20.3736 37.42 20.861 38.0652C24.5723 43.0228 30.3829 46.3845 36.8682 47.2334C39.2674 47.6069 41.6291 47.6069 43.8409 47.2334C50.4013 46.3845 56.2119 43.0228 59.9232 38.0652C60.3731 37.42 61.1603 37.0125 61.9851 36.9446C62.8098 36.8767 63.6345 37.1483 64.2343 37.6916L78.8546 50.9347C80.5416 52.4627 81.1789 54.7038 80.5416 56.7752C79.9043 58.8465 78.0299 60.4425 75.7431 60.9178L69.5576 62.2421C69.2202 62.3101 68.9578 62.5477 68.8454 62.8873L67.5333 67.8789C66.971 70.0861 65.0966 71.7839 62.6599 72.2932C60.2231 72.8365 57.7115 72.0555 56.137 70.3238L40.392 53.9228L24.6472 70.3577C23.3727 71.716 21.5732 72.463 19.6614 72.463ZM18.2368 43.3963L5.90329 54.568C5.5659 54.8736 5.60339 55.2132 5.67837 55.4169C5.71585 55.5867 5.90329 55.9262 6.35315 55.9942L12.5387 57.3185C14.9754 57.8278 16.8498 59.5256 17.4121 61.7328L18.7242 66.7244C18.8366 67.1658 19.2115 67.3016 19.4364 67.3696C19.6614 67.4035 20.0362 67.4375 20.3736 67.0979L34.7314 52.1231C28.3585 51.0026 22.5104 47.9125 18.2368 43.3963ZM46.0527 52.0892L60.4106 67.03C60.748 67.4035 61.1603 67.4035 61.3853 67.3356C61.6102 67.3016 61.9476 67.1319 62.0975 66.6904L63.4096 61.6988C63.9719 59.4917 65.8463 57.7939 68.283 57.2845L74.4685 55.9602C74.9184 55.8583 75.1058 55.5527 75.1433 55.3829C75.2183 55.2132 75.2558 54.8396 74.9184 54.534L62.5849 43.3624C58.2738 47.8786 52.4631 50.9686 46.0527 52.0892Z" fill="#000000"/>
<path d="M47.484 39.5253C46.5093 39.5253 45.3472 39.2876 43.9602 38.5405L40.3988 36.605L36.8375 38.5066C33.576 40.2723 31.4393 39.2536 30.652 38.7443C29.8648 38.2349 28.1778 36.7069 29.0401 33.3452L29.9398 29.8477L26.9407 27.3349C25.2913 25.8408 24.6915 24.0412 25.2538 22.4113C25.8161 20.7814 27.4656 19.6268 29.7898 19.2872L33.8009 18.676L35.7128 14.8729C36.8 12.9374 38.4869 11.8508 40.3988 11.8508C42.3107 11.8508 44.0351 12.9714 45.0848 14.9069L47.2966 18.9138L51.0079 19.3212C53.2947 19.6608 54.9441 20.8153 55.5439 22.4452C56.1062 24.0751 55.5064 25.8748 53.857 27.3689L50.7455 30.1873L51.7202 33.3452C52.5824 36.7069 50.8954 38.2349 50.1082 38.7443C49.6958 39.0499 48.7961 39.5253 47.484 39.5253ZM31.4393 24.2449L34.0259 26.5878C35.2255 27.6745 35.8253 29.5081 35.4504 31.0022L34.7381 33.7187L37.7372 32.1228C39.3492 31.2739 41.5235 31.2739 43.0979 32.1228L46.097 33.7187L45.4222 31.0022C45.0473 29.4742 45.6096 27.6745 46.8092 26.5878L49.3959 24.2449L46.1345 23.7355C44.56 23.4978 42.9855 22.4452 42.2732 21.1549L40.3988 17.8271L38.5244 21.2228C37.8496 22.4792 36.2751 23.5658 34.7007 23.8035L31.4393 24.2449Z" fill="#000000"/>
</svg>
