<svg width="81" height="84" viewBox="0 0 81 84" fill="none" xmlns="http://www.w3.org/2000/svg">
<path d="M40.2563 46.8283C39.751 46.8283 39.2458 46.7117 38.7795 46.4397L4.46421 26.5812C3.06518 25.7651 2.59876 23.9773 3.41486 22.5783C4.23096 21.1793 5.97975 20.7128 7.41764 21.5289L40.2563 40.5326L72.8999 21.6456C74.299 20.8295 76.0866 21.3348 76.9027 22.695C77.7188 24.094 77.214 25.8816 75.8538 26.6977L41.7719 46.4397C41.2667 46.6728 40.7615 46.8283 40.2563 46.8283Z" fill="white"/>
<path d="M40.2586 82.0376C38.6653 82.0376 37.3439 80.7163 37.3439 79.1229V43.8751C37.3439 42.2818 38.6653 40.9605 40.2586 40.9605C41.8519 40.9605 43.1732 42.2818 43.1732 43.8751V79.1229C43.1732 80.7163 41.8519 82.0376 40.2586 82.0376Z" fill="white"/>
<path d="M40.2609 83.5533C36.8411 83.5533 33.4601 82.8149 30.7786 81.3381L10.0264 69.7961C4.39137 66.6872 0 59.1868 0 52.7357V30.7786C0 24.3275 4.39137 16.8662 10.0264 13.7184L30.7786 2.21513C36.1027 -0.738378 44.4192 -0.738378 49.7433 2.21513L70.4956 13.757C76.1305 16.866 80.5219 24.3664 80.5219 30.8175V52.7746C80.5219 59.2257 76.1305 66.6872 70.4956 69.835L49.7433 81.3381C47.0618 82.8149 43.6808 83.5533 40.2609 83.5533ZM40.2609 5.82926C37.8126 5.82926 35.4032 6.3345 33.6155 7.30605L12.8633 18.8479C9.13257 20.9465 5.8293 26.5038 5.8293 30.8175V52.7746C5.8293 57.0494 9.13257 62.6455 12.8633 64.7441L33.6155 76.2861C37.152 78.268 43.3699 78.268 46.9063 76.2861L67.6586 64.7441C71.3894 62.6455 74.6926 57.0882 74.6926 52.7746V30.8175C74.6926 26.5427 71.3894 20.9465 67.6586 18.8479L46.9063 7.30605C45.1187 6.3345 42.7092 5.82926 40.2609 5.82926Z" fill="white"/>
<path d="M59.6942 49.5101C58.1009 49.5101 56.7796 48.1888 56.7796 46.5955V34.0823L21.3373 13.6408C19.9383 12.8247 19.4719 11.037 20.288 9.6768C21.1041 8.27776 22.8529 7.81134 24.252 8.62744L61.1321 29.924C62.026 30.4292 62.6089 31.4006 62.6089 32.4498V46.6736C62.6089 48.1892 61.2876 49.5101 59.6942 49.5101Z" fill="white"/>
</svg>
