<svg width="76" height="76" viewBox="0 0 76 76" fill="none" xmlns="http://www.w3.org/2000/svg">
<path d="M58.7815 20.9923C58.5723 20.9574 58.3282 20.9574 58.119 20.9923C53.3071 20.8179 49.4715 16.8778 49.4715 11.9961C49.4715 7.00991 53.4814 3 58.4677 3C63.4539 3 67.4638 7.04477 67.4638 11.9961C67.4289 16.8778 63.5934 20.8179 58.7815 20.9923Z" stroke="#000000" stroke-width="5.23031" stroke-linecap="round" stroke-linejoin="round"/>
<path d="M55.1897 46.3767C59.9667 47.1787 65.2319 46.3418 68.928 43.8662C73.8445 40.5885 73.8445 35.2187 68.928 31.941C65.197 29.4655 59.8621 28.6286 55.0851 29.4655" stroke="#000000" stroke-width="5.23031" stroke-linecap="round" stroke-linejoin="round"/>
<path d="M16.8343 20.9923C17.0435 20.9574 17.2876 20.9574 17.4968 20.9923C22.3087 20.8179 26.1443 16.8778 26.1443 11.9961C26.1443 7.00991 22.1344 3 17.1481 3C12.1619 3 8.15199 7.04477 8.15199 11.9961C8.18686 16.8778 12.0224 20.8179 16.8343 20.9923Z" stroke="#000000" stroke-width="5.23031" stroke-linecap="round" stroke-linejoin="round"/>
<path d="M20.4257 46.3767C15.6486 47.1787 10.3835 46.3418 6.68737 43.8662C1.77088 40.5885 1.77088 35.2187 6.68737 31.941C10.4183 29.4655 15.7532 28.6286 20.5303 29.4655" stroke="#000000" stroke-width="5.23031" stroke-linecap="round" stroke-linejoin="round"/>
<path d="M37.8603 47.0392C37.651 47.0043 37.407 47.0043 37.1977 47.0392C32.3859 46.8649 28.5502 42.9247 28.5502 38.0431C28.5502 33.0568 32.5602 29.0468 37.5464 29.0468C42.5327 29.0468 46.5426 33.0917 46.5426 38.0431C46.5077 42.9247 42.6721 46.8997 37.8603 47.0392Z" stroke="#000000" stroke-width="5.23031" stroke-linecap="round" stroke-linejoin="round"/>
<path d="M27.7133 58.0229C22.7968 61.3005 22.7968 66.6703 27.7133 69.948C33.2924 73.6789 42.428 73.6789 48.007 69.948C52.9235 66.6703 52.9235 61.3005 48.007 58.0229C42.4629 54.3268 33.2924 54.3268 27.7133 58.0229Z" stroke="#000000" stroke-width="5.23031" stroke-linecap="round" stroke-linejoin="round"/>
</svg>

