<svg width="68" height="95" viewBox="0 0 68 95" fill="none" xmlns="http://www.w3.org/2000/svg">
<path d="M51.2086 88.9777C50.3663 88.9777 49.5239 88.6673 48.8589 88.0023L42.1202 81.2636C40.8346 79.9779 40.8346 77.8499 42.1202 76.5642C43.4059 75.2786 45.5339 75.2786 46.8196 76.5642L51.2086 80.9533L62.3364 69.8255C63.622 68.5398 65.7501 68.5398 67.0357 69.8255C68.3214 71.1112 68.3214 73.2392 67.0357 74.5249L53.5583 88.0023C52.8933 88.6673 52.051 88.9777 51.2086 88.9777Z" fill="white"/>
<path d="M34.361 45.974C34.228 45.974 34.1393 45.974 34.0063 45.974C33.7846 45.9297 33.4743 45.9297 33.2083 45.974C20.3514 45.575 10.6424 35.4669 10.6424 23.0092C10.598 16.8911 12.9921 11.1277 17.3368 6.78305C21.6814 2.43835 27.4449 0 33.6073 0C46.2867 0 56.6165 10.3297 56.6165 23.0092C56.6165 35.4669 46.9074 45.5307 34.494 45.974C34.4496 45.974 34.4053 45.974 34.361 45.974ZM33.6073 6.65005C29.2183 6.65005 25.1396 8.37906 22.0361 11.4381C18.9771 14.5414 17.2924 18.6201 17.2924 22.9648C17.2924 31.8316 24.2085 39.0136 33.0309 39.2796C33.297 39.2353 33.8733 39.2353 34.4496 39.2796C43.1834 38.8806 49.9664 31.7429 49.9664 22.9648C49.9664 14.0094 42.607 6.65005 33.6073 6.65005Z" fill="white"/>
<path d="M33.6051 94.4746C24.5608 94.4746 16.0044 92.1249 9.53173 87.7802C3.36936 83.6571 0 78.0268 0 71.9531C0 65.8794 3.41369 60.2933 9.53173 56.2146C22.7875 47.3479 44.3338 47.3479 57.5896 56.2146C59.0969 57.2343 59.5403 59.318 58.5206 60.8253C57.5009 62.377 55.4172 62.776 53.9099 61.7563C42.8708 54.3969 24.2505 54.3969 13.2114 61.7563C8.9554 64.5937 6.65005 68.1847 6.65005 71.9531C6.65005 75.7214 8.9554 79.4011 13.2114 82.2385C18.5758 85.8295 25.8024 87.7802 33.5607 87.7802C35.3784 87.7802 36.8858 89.2875 36.8858 91.1052C36.8858 92.9229 35.4228 94.4746 33.6051 94.4746Z" fill="white"/>
</svg>
